<svg width="146" height="47" viewBox="0 0 146 47" fill="none" xmlns="http://www.w3.org/2000/svg">
<path d="M14.3398 23.8874L6.59457 31.8073V42.9207H0.5V0H6.59457V24.0151L29.7032 0H36.6865L18.5298 19.2887L37.9562 42.9207H30.8459L14.3398 23.8874Z" fill="#FF6060"/>
<path d="M82.3958 39.4717L84.8082 34.873C87.6015 36.7891 91.9185 38.1943 96.1085 38.1943C101.568 38.1943 103.727 36.5337 103.727 33.7234C103.727 26.4422 83.2845 32.7015 83.2845 19.7997C83.2845 13.9237 88.4903 10.0915 96.7434 10.0915C100.933 10.0915 105.758 11.2411 108.552 13.0295L106.012 17.6281C103.092 15.712 99.9177 15.0733 96.7434 15.0733C91.6646 15.0733 89.1252 16.9894 89.1252 19.5442C89.1252 27.2086 109.567 20.9494 109.567 33.5956C109.567 39.4717 104.235 43.1761 95.6007 43.1761C90.3949 43.3039 85.0621 41.6433 82.3958 39.4717Z" fill="#FF6060"/>
<path d="M145.5 23.2487V42.9207H139.913V38.5775C138.009 41.5155 134.327 43.1762 129.248 43.1762C121.884 43.1762 117.313 39.2162 117.313 33.5957C117.313 28.3583 120.614 24.1429 130.264 24.1429H139.533V22.9932C139.533 18.0114 136.612 15.2011 130.899 15.2011C127.089 15.2011 123.153 16.6062 120.614 18.6501L118.202 14.1792C121.503 11.4966 126.328 9.96375 131.533 9.96375C140.548 10.0915 145.5 14.4346 145.5 23.2487ZM139.66 32.957V28.3583H130.645C124.804 28.3583 123.153 30.6576 123.153 33.3402C123.153 36.5337 125.82 38.5775 130.264 38.5775C134.708 38.7053 138.263 36.7892 139.66 32.957Z" fill="#FF6060"/>
<path d="M63.6042 34.3621V43.0484L67.2864 40.8768V32.1905L63.6042 34.3621Z" fill="#FF6060"/>
<path d="M73.7618 23.7596L58.6524 14.9456L50.2724 10.0915L42.0193 24.5261L42.1463 38.0665L57.1287 46.8806L58.6524 45.9864V33.2124L65.3818 21.3326L72.2382 25.2925V38.0665L73.7618 37.1724V23.7596Z" fill="#FF6060"/>
</svg>
